<svg id="visual" viewBox="0 0 960 540" width="960" height="540" xmlns="http://www.w3.org/2000/svg" xmlns:xlink="http://www.w3.org/1999/xlink" version="1.1"><rect x="0" y="0" width="960" height="540" fill="#202023"></rect><path d="M0 373L8.5 356C17 339 34 305 50.8 296C67.7 287 84.3 303 101.2 311.8C118 320.7 135 322.3 151.8 329.5C168.7 336.7 185.3 349.3 202.2 340.3C219 331.3 236 300.7 252.8 283.2C269.7 265.7 286.3 261.3 303.2 267.3C320 273.3 337 289.7 353.8 312.3C370.7 335 387.3 364 404.2 379.3C421 394.7 438 396.3 454.8 388.7C471.7 381 488.3 364 505.2 345.3C522 326.7 539 306.3 555.8 299C572.7 291.7 589.3 297.3 606.2 307.5C623 317.7 640 332.3 656.8 333.3C673.7 334.3 690.3 321.7 707.2 323.8C724 326 741 343 757.8 350C774.7 357 791.3 354 808.2 344.7C825 335.3 842 319.7 858.8 326.2C875.7 332.7 892.3 361.3 909.2 361.8C926 362.3 943 334.7 951.5 320.8L960 307L960 541L951.5 541C943 541 926 541 909.2 541C892.3 541 875.7 541 858.8 541C842 541 825 541 808.2 541C791.3 541 774.7 541 757.8 541C741 541 724 541 707.2 541C690.3 541 673.7 541 656.8 541C640 541 623 541 606.2 541C589.3 541 572.7 541 555.8 541C539 541 522 541 505.2 541C488.3 541 471.7 541 454.8 541C438 541 421 541 404.2 541C387.3 541 370.7 541 353.8 541C337 541 320 541 303.2 541C286.3 541 269.7 541 252.8 541C236 541 219 541 202.2 541C185.3 541 168.7 541 151.8 541C135 541 118 541 101.2 541C84.3 541 67.7 541 50.8 541C34 541 17 541 8.5 541L0 541Z" fill="#f7770f"></path><path d="M0 341L8.5 353.5C17 366 34 391 50.8 394C67.7 397 84.3 378 101.2 375.5C118 373 135 387 151.8 380.8C168.7 374.7 185.3 348.3 202.2 344.3C219 340.3 236 358.7 252.8 375C269.7 391.3 286.3 405.7 303.2 394C320 382.3 337 344.7 353.8 329.8C370.7 315 387.3 323 404.2 333.3C421 343.7 438 356.3 454.8 357.5C471.7 358.7 488.3 348.3 505.2 336.3C522 324.3 539 310.7 555.8 315C572.7 319.3 589.3 341.7 606.2 356.3C623 371 640 378 656.8 384.3C673.7 390.7 690.3 396.3 707.2 388.3C724 380.3 741 358.7 757.8 339.5C774.7 320.3 791.3 303.7 808.2 302.8C825 302 842 317 858.8 339.8C875.7 362.7 892.3 393.3 909.2 401.8C926 410.3 943 396.7 951.5 389.8L960 383L960 541L951.5 541C943 541 926 541 909.2 541C892.3 541 875.7 541 858.8 541C842 541 825 541 808.2 541C791.3 541 774.7 541 757.8 541C741 541 724 541 707.2 541C690.3 541 673.7 541 656.8 541C640 541 623 541 606.2 541C589.3 541 572.7 541 555.8 541C539 541 522 541 505.2 541C488.3 541 471.7 541 454.8 541C438 541 421 541 404.2 541C387.3 541 370.7 541 353.8 541C337 541 320 541 303.2 541C286.3 541 269.7 541 252.8 541C236 541 219 541 202.2 541C185.3 541 168.7 541 151.8 541C135 541 118 541 101.2 541C84.3 541 67.7 541 50.8 541C34 541 17 541 8.5 541L0 541Z" fill="#f66528"></path><path d="M0 377L8.5 376.2C17 375.3 34 373.7 50.8 375.5C67.7 377.3 84.3 382.7 101.2 390.2C118 397.7 135 407.3 151.8 404.3C168.7 401.3 185.3 385.7 202.2 386.7C219 387.7 236 405.3 252.8 415C269.7 424.7 286.3 426.3 303.2 423.5C320 420.7 337 413.3 353.8 404.3C370.7 395.3 387.3 384.7 404.2 385.2C421 385.7 438 397.3 454.8 390.8C471.7 384.3 488.3 359.7 505.2 352.3C522 345 539 355 555.8 355.5C572.7 356 589.3 347 606.2 340C623 333 640 328 656.8 330.7C673.7 333.3 690.3 343.7 707.2 349.3C724 355 741 356 757.8 357.2C774.7 358.3 791.3 359.7 808.2 355C825 350.3 842 339.7 858.8 333.8C875.7 328 892.3 327 909.2 341.3C926 355.7 943 385.3 951.5 400.2L960 415L960 541L951.5 541C943 541 926 541 909.2 541C892.3 541 875.7 541 858.8 541C842 541 825 541 808.2 541C791.3 541 774.7 541 757.8 541C741 541 724 541 707.2 541C690.3 541 673.7 541 656.8 541C640 541 623 541 606.2 541C589.3 541 572.7 541 555.8 541C539 541 522 541 505.2 541C488.3 541 471.7 541 454.8 541C438 541 421 541 404.2 541C387.3 541 370.7 541 353.8 541C337 541 320 541 303.2 541C286.3 541 269.7 541 252.8 541C236 541 219 541 202.2 541C185.3 541 168.7 541 151.8 541C135 541 118 541 101.2 541C84.3 541 67.7 541 50.8 541C34 541 17 541 8.5 541L0 541Z" fill="#f35339"></path><path d="M0 444L8.5 435.5C17 427 34 410 50.8 413.5C67.7 417 84.3 441 101.2 449C118 457 135 449 151.8 441C168.7 433 185.3 425 202.2 414.3C219 403.7 236 390.3 252.8 393.2C269.7 396 286.3 415 303.2 418.8C320 422.7 337 411.3 353.8 407C370.7 402.7 387.3 405.3 404.2 414.7C421 424 438 440 454.8 435C471.7 430 488.3 404 505.2 391.7C522 379.3 539 380.7 555.8 390.5C572.7 400.3 589.3 418.7 606.2 418.2C623 417.7 640 398.3 656.8 398.3C673.7 398.3 690.3 417.7 707.2 424C724 430.3 741 423.7 757.8 422.8C774.7 422 791.3 427 808.2 431.7C825 436.3 842 440.7 858.8 432C875.7 423.3 892.3 401.7 909.2 388C926 374.3 943 368.7 951.5 365.8L960 363L960 541L951.5 541C943 541 926 541 909.2 541C892.3 541 875.7 541 858.8 541C842 541 825 541 808.2 541C791.3 541 774.7 541 757.8 541C741 541 724 541 707.2 541C690.3 541 673.7 541 656.8 541C640 541 623 541 606.2 541C589.3 541 572.7 541 555.8 541C539 541 522 541 505.2 541C488.3 541 471.7 541 454.8 541C438 541 421 541 404.2 541C387.3 541 370.7 541 353.8 541C337 541 320 541 303.2 541C286.3 541 269.7 541 252.8 541C236 541 219 541 202.2 541C185.3 541 168.7 541 151.8 541C135 541 118 541 101.2 541C84.3 541 67.7 541 50.8 541C34 541 17 541 8.5 541L0 541Z" fill="#ec4347"></path><path d="M0 427L8.5 428.2C17 429.3 34 431.7 50.8 436.8C67.7 442 84.3 450 101.2 452.5C118 455 135 452 151.8 450C168.7 448 185.3 447 202.2 445.3C219 443.7 236 441.3 252.8 447C269.7 452.7 286.3 466.3 303.2 466.2C320 466 337 452 353.8 448.8C370.7 445.7 387.3 453.3 404.2 459.8C421 466.3 438 471.7 454.8 469.3C471.7 467 488.3 457 505.2 457.5C522 458 539 469 555.8 460.7C572.7 452.3 589.3 424.7 606.2 415.7C623 406.7 640 416.3 656.8 419.5C673.7 422.7 690.3 419.3 707.2 428.2C724 437 741 458 757.8 463.2C774.7 468.3 791.3 457.7 808.2 458.3C825 459 842 471 858.8 467.2C875.7 463.3 892.3 443.7 909.2 436.3C926 429 943 434 951.5 436.5L960 439L960 541L951.5 541C943 541 926 541 909.2 541C892.3 541 875.7 541 858.8 541C842 541 825 541 808.2 541C791.3 541 774.7 541 757.8 541C741 541 724 541 707.2 541C690.3 541 673.7 541 656.8 541C640 541 623 541 606.2 541C589.3 541 572.7 541 555.8 541C539 541 522 541 505.2 541C488.3 541 471.7 541 454.8 541C438 541 421 541 404.2 541C387.3 541 370.7 541 353.8 541C337 541 320 541 303.2 541C286.3 541 269.7 541 252.8 541C236 541 219 541 202.2 541C185.3 541 168.7 541 151.8 541C135 541 118 541 101.2 541C84.3 541 67.7 541 50.8 541C34 541 17 541 8.5 541L0 541Z" fill="#e23553"></path><path d="M0 488L8.5 479.8C17 471.7 34 455.3 50.8 453.7C67.7 452 84.3 465 101.2 475.2C118 485.3 135 492.7 151.8 487.5C168.7 482.3 185.3 464.7 202.2 460C219 455.3 236 463.7 252.8 461.8C269.7 460 286.3 448 303.2 448.3C320 448.7 337 461.3 353.8 473C370.7 484.7 387.3 495.3 404.2 488.7C421 482 438 458 454.8 448.7C471.7 439.3 488.3 444.7 505.2 451.2C522 457.7 539 465.3 555.8 474.5C572.7 483.7 589.3 494.3 606.2 498.5C623 502.7 640 500.3 656.8 488.7C673.7 477 690.3 456 707.2 455.3C724 454.7 741 474.3 757.8 485.7C774.7 497 791.3 500 808.2 499.3C825 498.7 842 494.3 858.8 487C875.7 479.7 892.3 469.3 909.2 472C926 474.7 943 490.3 951.5 498.2L960 506L960 541L951.5 541C943 541 926 541 909.2 541C892.3 541 875.7 541 858.8 541C842 541 825 541 808.2 541C791.3 541 774.7 541 757.8 541C741 541 724 541 707.2 541C690.3 541 673.7 541 656.8 541C640 541 623 541 606.2 541C589.3 541 572.7 541 555.8 541C539 541 522 541 505.2 541C488.3 541 471.7 541 454.8 541C438 541 421 541 404.2 541C387.3 541 370.7 541 353.8 541C337 541 320 541 303.2 541C286.3 541 269.7 541 252.8 541C236 541 219 541 202.2 541C185.3 541 168.7 541 151.8 541C135 541 118 541 101.2 541C84.3 541 67.7 541 50.8 541C34 541 17 541 8.5 541L0 541Z" fill="#d52a5e"></path><path d="M0 497L8.5 497C17 497 34 497 50.8 492.8C67.7 488.7 84.3 480.3 101.2 482C118 483.7 135 495.3 151.8 503.8C168.7 512.3 185.3 517.7 202.2 515.3C219 513 236 503 252.8 500.8C269.7 498.7 286.3 504.3 303.2 507.5C320 510.7 337 511.3 353.8 508.3C370.7 505.3 387.3 498.7 404.2 495.5C421 492.3 438 492.7 454.8 498.2C471.7 503.7 488.3 514.3 505.2 518.2C522 522 539 519 555.8 513.2C572.7 507.3 589.3 498.7 606.2 494.5C623 490.3 640 490.7 656.8 495.7C673.7 500.7 690.3 510.3 707.2 513.5C724 516.7 741 513.3 757.8 510.7C774.7 508 791.3 506 808.2 500.5C825 495 842 486 858.8 487.8C875.7 489.7 892.3 502.3 909.2 506.2C926 510 943 505 951.5 502.5L960 500L960 541L951.5 541C943 541 926 541 909.2 541C892.3 541 875.7 541 858.8 541C842 541 825 541 808.2 541C791.3 541 774.7 541 757.8 541C741 541 724 541 707.2 541C690.3 541 673.7 541 656.8 541C640 541 623 541 606.2 541C589.3 541 572.7 541 555.8 541C539 541 522 541 505.2 541C488.3 541 471.7 541 454.8 541C438 541 421 541 404.2 541C387.3 541 370.7 541 353.8 541C337 541 320 541 303.2 541C286.3 541 269.7 541 252.8 541C236 541 219 541 202.2 541C185.3 541 168.7 541 151.8 541C135 541 118 541 101.2 541C84.3 541 67.7 541 50.8 541C34 541 17 541 8.5 541L0 541Z" fill="#c62368"></path></svg>